<svg width="45" height="45" viewBox="0 0 45 45" fill="none" xmlns="http://www.w3.org/2000/svg">
<path fill-rule="evenodd" clip-rule="evenodd" d="M22.5344 11.7788C23.3159 11.7788 23.9495 12.4123 23.9495 13.1938V32.0616C23.9495 32.8432 23.3159 33.4767 22.5344 33.4767C21.7528 33.4767 21.1193 32.8432 21.1193 32.0616V13.1938C21.1193 12.4123 21.7528 11.7788 22.5344 11.7788Z" fill="#3E4451"/>
<path fill-rule="evenodd" clip-rule="evenodd" d="M12.0997 21.6272C12.6523 21.0746 13.5483 21.0746 14.101 21.6272L22.5342 30.0604L30.9675 21.6272C31.5201 21.0746 32.4161 21.0746 32.9687 21.6272C33.5214 22.1798 33.5214 23.0758 32.9687 23.6284L23.5348 33.0623C22.9822 33.6149 22.0862 33.6149 21.5336 33.0623L12.0997 23.6284C11.5471 23.0758 11.5471 22.1798 12.0997 21.6272Z" fill="#3E4451"/>
</svg>
