<svg width="45" height="45" viewBox="0 0 45 45" fill="none" xmlns="http://www.w3.org/2000/svg">
<path fill-rule="evenodd" clip-rule="evenodd" d="M22.534 33.1154C21.7524 33.1154 21.1188 32.4818 21.1188 31.7002L21.1188 12.8306C21.1188 12.049 21.7524 11.4154 22.534 11.4154C23.3156 11.4154 23.9493 12.049 23.9493 12.8306L23.9493 31.7002C23.9493 32.4818 23.3156 33.1154 22.534 33.1154Z" fill="#3E4451"/>
<path fill-rule="evenodd" clip-rule="evenodd" d="M32.9697 23.2661C32.417 23.8187 31.5209 23.8187 30.9683 23.2661L22.5342 14.832L14.1001 23.2661C13.5474 23.8187 12.6514 23.8187 12.0987 23.2661C11.546 22.7134 11.546 21.8173 12.0987 21.2646L21.5335 11.8299C22.0862 11.2772 22.9822 11.2772 23.5349 11.8299L32.9697 21.2646C33.5224 21.8173 33.5224 22.7134 32.9697 23.2661Z" fill="#3E4451"/>
</svg>
