<svg width="45" height="45" viewBox="0 0 45 45" fill="none" xmlns="http://www.w3.org/2000/svg">
<path fill-rule="evenodd" clip-rule="evenodd" d="M22.5912 15.9667C22.1572 16.3918 22.1498 17.0882 22.5748 17.5223L27.8806 22.941L22.5726 28.4215C22.1499 28.8579 22.1611 29.5543 22.5975 29.977C23.0339 30.3996 23.7303 30.3885 24.1529 29.9521L30.2061 23.7021C30.6209 23.2738 30.619 22.5932 30.202 22.1672L24.1468 15.9831C23.7218 15.5491 23.0253 15.5417 22.5912 15.9667Z" fill="#888D99"/>
<path fill-rule="evenodd" clip-rule="evenodd" d="M14.3361 15.9667C13.902 16.3918 13.8947 17.0882 14.3197 17.5223L19.6255 22.941L14.3175 28.4215C13.8948 28.8579 13.906 29.5543 14.3423 29.977C14.7787 30.3996 15.4751 30.3885 15.8978 29.9521L21.951 23.7021C22.3658 23.2738 22.3639 22.5932 21.9468 22.1672L15.8917 15.9831C15.4666 15.5491 14.7702 15.5417 14.3361 15.9667Z" fill="#888D99"/>
</svg>
