<svg width="45" height="45" viewBox="0 0 45 45" fill="none" xmlns="http://www.w3.org/2000/svg">
<path fill-rule="evenodd" clip-rule="evenodd" d="M21.9104 15.9667C22.3445 16.3918 22.3518 17.0882 21.9268 17.5223L16.6211 22.941L21.9291 28.4215C22.3517 28.8579 22.3406 29.5543 21.9042 29.977C21.4678 30.3996 20.7714 30.3885 20.3487 29.9521L14.2955 23.7021C13.8808 23.2738 13.8826 22.5932 14.2997 22.1672L20.3549 15.9831C20.7799 15.5491 21.4763 15.5417 21.9104 15.9667Z" fill="#888D99"/>
<path fill-rule="evenodd" clip-rule="evenodd" d="M30.1655 15.9667C30.5996 16.3918 30.607 17.0882 30.1819 17.5223L24.8762 22.941L30.1842 28.4215C30.6068 28.8579 30.5957 29.5543 30.1593 29.977C29.7229 30.3996 29.0265 30.3885 28.6039 29.9521L22.5506 23.7021C22.1359 23.2738 22.1377 22.5932 22.5548 22.1672L28.61 15.9831C29.035 15.5491 29.7315 15.5417 30.1655 15.9667Z" fill="#888D99"/>
</svg>
