<svg width="45" height="44" viewBox="0 0 45 44" fill="none" xmlns="http://www.w3.org/2000/svg">
<path fill-rule="evenodd" clip-rule="evenodd" d="M12.189 9.8955H10.1425C9.71442 9.8955 9.32527 10.1439 9.14511 10.5322C8.96495 10.9206 9.02653 11.3781 9.30294 11.705L18.8163 22.9545V30.5417C18.8163 30.9581 19.0516 31.3388 19.4241 31.5251L24.3108 33.9684C24.6516 34.1388 25.0564 34.1206 25.3805 33.9203C25.7047 33.72 25.902 33.3661 25.902 32.985V25.6109L23.703 23.0908V31.206L21.0153 29.8621V22.552C21.0153 22.292 20.9232 22.0405 20.7554 21.842L12.5122 12.0945H14.1078L12.189 9.8955ZM24.6051 21.0826L26.0676 22.7587L27.7006 20.8277L26.2381 19.1516L24.6051 21.0826ZM20.0801 12.0945H16.7622L14.8434 9.8955L18.1613 9.8955L20.0801 12.0945ZM27.5445 17.6068L32.2061 12.0945H22.7345L20.8157 9.8955H34.5758C35.0039 9.8955 35.393 10.1439 35.5732 10.5322C35.7534 10.9206 35.6918 11.3781 35.4154 11.705L29.007 19.2829L27.5445 17.6068Z" fill="#888D99"/>
<path fill-rule="evenodd" clip-rule="evenodd" d="M12.4177 5.21438C12.9379 4.76049 13.7275 4.81422 14.1814 5.33439L33.6423 27.637C34.0962 28.1572 34.0424 28.9468 33.5223 29.4007C33.0021 29.8546 32.2125 29.8009 31.7586 29.2807L12.2977 6.97807C11.8438 6.4579 11.8975 5.66827 12.4177 5.21438Z" fill="#888D99"/>
</svg>
