<svg width="45" height="44" viewBox="0 0 45 44" fill="none" xmlns="http://www.w3.org/2000/svg">
<path fill-rule="evenodd" clip-rule="evenodd" d="M31.0338 13.5723C31.6196 14.1581 31.6196 15.1079 31.0338 15.6936L16.3197 30.4076C15.7339 30.9934 14.7842 30.9934 14.1984 30.4076C13.6126 29.8218 13.6126 28.8721 14.1984 28.2863L28.9125 13.5723C29.4983 12.9865 30.448 12.9865 31.0338 13.5723Z" fill="#888D99"/>
<path fill-rule="evenodd" clip-rule="evenodd" d="M14.1984 13.5722C14.7842 12.9864 15.7339 12.9864 16.3197 13.5722L31.0337 28.2863C31.6194 28.8721 31.6194 29.8219 31.0337 30.4076C30.4479 30.9934 29.4981 30.9934 28.9123 30.4076L14.1984 15.6935C13.6126 15.1077 13.6126 14.158 14.1984 13.5722Z" fill="#888D99"/>
</svg>
